<svg width="63" height="63" viewBox="0 0 63 63" fill="none" xmlns="http://www.w3.org/2000/svg">
<g id="beenhere_24px">
<path id="icon/maps/beenhere_24px" fill-rule="evenodd" clip-rule="evenodd" d="M49.875 2.625H13.125C10.2375 2.625 7.90125 4.9875 7.90125 7.875L7.875 41.8162C7.875 43.6275 8.79375 45.2288 10.185 46.1738L31.5 60.375L52.7887 46.1738C54.18 45.2288 55.0988 43.6275 55.0988 41.8162L55.125 7.875C55.125 4.9875 52.7625 2.625 49.875 2.625ZM31.5 54.075L13.125 41.8425V7.87499H49.875V41.8162L31.5 54.075ZM19.4513 27.7987L26.2237 34.5974L43.5225 17.2724L47.25 20.9999L26.25 41.9999L15.75 31.4999L19.4513 27.7987Z" fill="black" fill-opacity="0.54"/>
</g>
</svg>
